<?xml version="1.0" encoding="UTF-8"?>
<svg version="1.1" xmlns="http://www.w3.org/2000/svg" width="1024" height="1024">
<path d="M0 0 C337.92 0 675.84 0 1024 0 C1024 337.92 1024 675.84 1024 1024 C686.08 1024 348.16 1024 0 1024 C0 686.08 0 348.16 0 0 Z " fill="#FDFDFD" transform="translate(0,0)"/>
<path d="M0 0 C0.99837891 0.25958496 1.99675781 0.51916992 3.02539062 0.78662109 C5.97797018 1.55625762 8.92726147 2.33703809 11.875 3.125 C13.16688232 3.46905884 13.16688232 3.46905884 14.48486328 3.82006836 C20.78965565 5.54943546 26.88691616 7.68826942 33 10 C34.03044434 10.38704102 35.06088867 10.77408203 36.12255859 11.17285156 C59.43033134 19.99727949 81.67839256 30.03402918 103 43 C104.06105957 43.64001953 104.06105957 43.64001953 105.14355469 44.29296875 C114.75005319 50.10425216 123.96085462 56.34471564 133 63 C134.52560547 64.10988281 134.52560547 64.10988281 136.08203125 65.2421875 C143.67928514 70.83806782 150.86283575 76.83780647 158 83 C158.68320312 83.58136719 159.36640625 84.16273438 160.0703125 84.76171875 C188.9408798 109.5704097 214.40078341 138.30825343 234 171 C234.80720944 172.32557091 235.61450136 173.6510916 236.421875 174.9765625 C256.95302915 208.9791073 272.79785187 245.3279386 282 284 C282.22139648 284.90282715 282.44279297 285.8056543 282.67089844 286.73583984 C290.19399882 317.43031033 293.1424111 347.89893163 293.25 379.4375 C293.25535767 380.31107147 293.26071533 381.18464294 293.26623535 382.08468628 C293.35323694 400.76476112 291.46746912 418.98827856 288.25 437.375 C288.11961334 438.12724854 287.98922668 438.87949707 287.85488892 439.65454102 C285.63954231 452.34117396 282.89015197 464.71021643 279 477 C278.66597168 478.06653809 278.33194336 479.13307617 277.98779297 480.23193359 C273.38335684 494.80746981 268.37457856 509.10154779 262 523 C261.55253418 523.97710938 261.10506836 524.95421875 260.64404297 525.9609375 C246.89114768 555.75657824 229.66938635 585.7542586 207.03515625 609.78515625 C204.92604651 612.08048297 203.03842961 614.47737622 201.125 616.9375 C191.56227247 628.73938732 180.36137707 639.79531783 168.37109375 649.12109375 C165.9559753 651.03488613 163.74256249 653.07527447 161.5 655.1875 C139.89154196 674.83779889 113.05606509 691.32802817 86.55078125 703.35546875 C83.2472889 704.63789042 83.2472889 704.63789042 82 706 C87.48225938 707.47603737 92.77528528 708.46072608 98.41796875 709.03515625 C99.58662224 709.16053017 99.58662224 709.16053017 100.77888489 709.28843689 C102.41814681 709.46324492 104.05769647 709.63537381 105.69750977 709.80493164 C108.16422777 710.06009269 110.62998882 710.32322334 113.09570312 710.58789062 C121.26545709 711.45573618 129.42166487 712.23611294 137.62231445 712.75170898 C140 713 140 713 142 714 C143.91175089 714.30359566 145.82995571 714.5667527 147.75 714.8125 C157.89382686 716.21702987 167.94612797 718.06097326 178 720 C179.18360107 720.21994629 179.18360107 720.21994629 180.39111328 720.44433594 C191.06040651 722.46039702 207.0700738 725.85351652 214 735 C214.125 737.375 214.125 737.375 213 740 C185.61396269 761.73766711 134.06141638 761.10806995 100.41601562 763.79833984 C97.91554953 764.00704892 95.41908476 764.24378258 92.921875 764.48828125 C80.28494287 765.71628487 67.63742696 766.57349829 54.96337891 767.30273438 C53.65804199 767.37943359 52.35270508 767.45613281 51.0078125 767.53515625 C49.84910645 767.600979 48.69040039 767.66680176 47.49658203 767.73461914 C45.09672839 767.91676136 42.70172718 768.17349166 40.31617737 768.49227905 C36.02614646 769.03571094 31.76432051 769.24885662 27.44458008 769.38891602 C26.62233507 769.41831142 25.80009007 769.44770683 24.95292854 769.47799301 C22.22525353 769.57406653 19.49742804 769.66436424 16.76953125 769.75390625 C14.81588231 769.81991919 12.86223342 769.88593384 10.90858459 769.95195007 C4.54349222 770.16421349 -1.82195152 770.36445277 -8.1875 770.5625 C-9.81647343 770.61364204 -9.81647343 770.61364204 -11.47835541 770.66581726 C-43.69608229 771.67326036 -75.89120161 772.28814342 -108.125 772.25 C-109.40252954 772.24929945 -109.40252954 772.24929945 -110.70586777 772.24858475 C-129.95110037 772.23733298 -149.18607876 772.00959991 -168.42578125 771.54296875 C-169.24919636 771.52351952 -170.07261147 771.50407028 -170.92097855 771.48403168 C-181.65244831 771.22481131 -192.35019787 770.7609986 -203.0625 770.0625 C-203.87733353 770.00945206 -204.69216705 769.95640411 -205.5316925 769.90174866 C-207.38581956 769.77856023 -209.23979172 769.65304659 -211.09375 769.52734375 C-217.75702498 769.09450679 -224.42101725 768.8085476 -231.09375 768.56640625 C-252.04224329 767.7988418 -272.83052941 766.7214008 -293.67211914 764.40869141 C-295.19546025 764.23977347 -296.71881606 764.07098797 -298.2421875 763.90234375 C-298.97331757 763.82105225 -299.70444763 763.73976074 -300.45773315 763.65600586 C-306.33671543 763.02312558 -312.21335724 762.65570429 -318.11686707 762.34306335 C-323.68135551 762.04156638 -329.16873669 761.5103488 -334.6875 760.75 C-336.0943103 760.56038696 -336.0943103 760.56038696 -337.52954102 760.36694336 C-400.66888454 751.62583026 -400.66888454 751.62583026 -413 740 C-413.6875 737.0625 -413.6875 737.0625 -413 734 C-387.2932466 709.72980047 -328.90341115 711.68652387 -295.53320312 708.61108398 C-294.45176529 708.51043137 -293.37032745 708.40977875 -292.25611877 708.30607605 C-290.20726238 708.1162554 -288.15806467 707.93007412 -286.10850525 707.7480011 C-284.74466454 707.62185677 -284.74466454 707.62185677 -283.35327148 707.49316406 C-282.55727036 707.42164124 -281.76126923 707.35011841 -280.94114685 707.27642822 C-278.9233327 707.09360322 -278.9233327 707.09360322 -277 706 C-277.95777344 705.52691406 -278.91554688 705.05382812 -279.90234375 704.56640625 C-284.27834971 702.39759384 -288.64139108 700.20353967 -293 698 C-293.68900391 697.65259766 -294.37800781 697.30519531 -295.08789062 696.94726562 C-314.5818278 687.05903662 -332.68173305 675.31805264 -350 662 C-350.96164062 661.26136719 -351.92328125 660.52273438 -352.9140625 659.76171875 C-356.46005676 656.97228027 -359.91009195 654.08577531 -363.3203125 651.1328125 C-363.91094482 650.62137695 -364.50157715 650.10994141 -365.11010742 649.58300781 C-366.32725372 648.52863552 -367.54356462 647.47329809 -368.7590332 646.41699219 C-372.21807618 643.43801989 -375.73133791 640.71144555 -379.5 638.125 C-389.61512777 630.94892853 -398.14635769 621.45354895 -405.80078125 611.76171875 C-407.80599131 609.24363081 -409.87259163 606.80440412 -411.97753906 604.37060547 C-427.10319198 586.82971028 -440.05920047 567.39132404 -451 547 C-451.43699219 546.19691406 -451.87398437 545.39382813 -452.32421875 544.56640625 C-458.97661508 532.3237609 -464.96561455 519.99442304 -470 507 C-470.35803711 506.08331543 -470.71607422 505.16663086 -471.08496094 504.22216797 C-483.0900779 473.15775647 -490.22801059 441.03189422 -494 408 C-494.09788818 407.1538916 -494.19577637 406.3077832 -494.29663086 405.43603516 C-495.3165134 395.19353952 -495.19909569 384.90704689 -495.1875 374.625 C-495.18689575 373.6403476 -495.1862915 372.65569519 -495.18566895 371.64120483 C-495.16235098 357.67388312 -495.01198831 343.8465932 -493 330 C-492.8551416 328.99533691 -492.7102832 327.99067383 -492.56103516 326.95556641 C-491.47912955 319.61823919 -490.26744568 312.30727746 -489 305 C-488.8644873 304.19739746 -488.72897461 303.39479492 -488.58935547 302.56787109 C-486.99961 293.17655858 -484.74938677 284.11966403 -482 275 C-481.33023809 272.64671206 -480.66357482 270.29254004 -480 267.9375 C-478.69001348 263.36789858 -477.36645198 258.80306069 -476 254.25 C-475.566875 252.80367188 -475.566875 252.80367188 -475.125 251.328125 C-473.59741803 246.80902833 -471.79730255 242.41744748 -470 238 C-469.45762695 236.63633301 -469.45762695 236.63633301 -468.90429688 235.24511719 C-453.65017174 197.00514483 -432.69200212 161.41584442 -406 130 C-405.16726563 128.98292969 -404.33453125 127.96585938 -403.4765625 126.91796875 C-396.0882287 118.02225604 -388.02775669 109.81260553 -379.875 101.625 C-379.32232452 101.06714813 -378.76964905 100.50929626 -378.20022583 99.93453979 C-371.12177339 92.80389431 -363.86818049 86.259625 -356 80 C-354.88625324 79.05372261 -353.77821391 78.10062355 -352.6796875 77.13671875 C-339.15969651 65.33026422 -324.15961102 55.55616961 -309 46 C-308.14100098 45.45061768 -308.14100098 45.45061768 -307.26464844 44.89013672 C-287.63088615 32.37317683 -266.47330858 21.86371626 -244.59326172 13.94677734 C-242.09186542 13.03353927 -239.60957871 12.08121309 -237.12890625 11.11328125 C-226.30421711 6.92640491 -215.34838661 3.62642782 -204.09814453 0.78564453 C-201.97663433 0.24766031 -199.85790991 -0.30139677 -197.74169922 -0.85986328 C-181.95601905 -5.00850407 -166.30843908 -7.88307341 -150.125 -9.875 C-149.28777405 -9.97845734 -148.4505481 -10.08191467 -147.58795166 -10.18850708 C-97.95122435 -16.22755069 -48.30168231 -12.76728345 0 0 Z " fill="#EAF6F3" transform="translate(612,118)"/>
<path d="M0 0 C1.19262451 -0.00475342 2.38524902 -0.00950684 3.61401367 -0.0144043 C15.105119 0.00724224 25.56686839 1.21847128 36.6875 4.125 C37.40164063 4.30627441 38.11578125 4.48754883 38.8515625 4.67431641 C57.08992584 9.38460558 75.43510324 16.91696232 90.6875 28.125 C91.63423584 28.80973389 91.63423584 28.80973389 92.60009766 29.50830078 C127.76306275 55.13173573 151.84932816 89.49126746 161.6875 132.125 C161.6875 132.785 161.6875 133.445 161.6875 134.125 C162.76511597 134.10143433 162.76511597 134.10143433 163.86450195 134.07739258 C206.1578388 133.278005 242.90402489 144.65195814 274.03881836 174.02368164 C282.13216049 181.90090424 288.51838284 190.70016812 294.6875 200.125 C295.29207031 201.01703125 295.89664063 201.9090625 296.51953125 202.828125 C302.99547717 212.87523898 307.08470408 224.54237099 310.5 235.9375 C310.694729 236.58146729 310.88945801 237.22543457 311.09008789 237.88891602 C320.9597694 272.47843391 313.20196157 308.09726477 296.19921875 338.8984375 C293.21025531 344.08669618 289.74823735 348.71263456 285.6875 353.125 C285.089375 352.465 284.49125 351.805 283.875 351.125 C268.63871833 336.01783936 248.78689894 331.88817074 227.97998047 331.87353516 C198.45007008 332.38823264 179.53777238 349.06296425 159.9128418 368.76928711 C158.36165273 370.32589389 156.80510608 371.87700171 155.24804688 373.42773438 C150.36373357 378.3091426 145.56870619 383.22531956 141.10083008 388.49731445 C140.63443115 389.03445068 140.16803223 389.57158691 139.6875 390.125 C139.30058424 390.64907063 138.91366848 391.17314125 138.515028 391.7130928 C135.74641741 393.85205933 133.48676813 393.43000928 130.03372192 393.34320068 C129.03455205 393.32424417 129.03455205 393.32424417 128.01519692 393.3049047 C125.90522906 393.26069371 123.79676631 393.19468526 121.6875 393.125 C120.43116634 393.09094307 119.17483269 393.05688614 117.88042831 393.02179718 C115.18256003 392.94472138 112.48511907 392.86314396 109.78756905 392.77645493 C88.14353205 392.0964354 66.50055927 392.0179851 44.84814453 391.99902344 C43.61138443 391.99793936 43.61138443 391.99793936 42.34963927 391.99683338 C33.6146428 391.98978314 24.87964784 391.98730583 16.14464878 391.98701389 C3.9504906 391.9865073 -8.24362888 391.97411149 -20.43777466 391.95733643 C-22.3742119 391.95473159 -24.31064915 391.95213277 -26.24708641 391.9495399 C-29.17773284 391.94560326 -32.10837925 391.94165636 -35.03902563 391.93767868 C-45.99509116 391.92283993 -56.95115774 391.90915598 -67.90722656 391.89697266 C-69.40364367 391.89530231 -69.40364367 391.89530231 -70.93029143 391.89359823 C-87.16200248 391.87595276 -103.39368864 391.87316038 -119.62540768 391.87482306 C-136.38831382 391.87610465 -153.15112796 391.85832151 -169.91399872 391.82380509 C-180.20517462 391.80326864 -190.49612916 391.79773076 -200.78731652 391.8121334 C-207.82903149 391.82063008 -214.87057457 391.81076339 -221.91225331 391.7868239 C-225.96151386 391.77360814 -230.01036124 391.76817168 -234.059618 391.78494453 C-268.81084602 391.91751113 -297.65746337 384.24438208 -323.12109375 359.3828125 C-334.75945039 347.41865427 -342.87986944 333.21967051 -348.5 317.5625 C-348.75031982 316.86600342 -349.00063965 316.16950684 -349.25854492 315.4519043 C-352.60678962 305.80121454 -353.617543 297.17157744 -353.5 286.9375 C-353.4899292 285.73367676 -353.4798584 284.52985352 -353.46948242 283.28955078 C-353.43208607 279.90093637 -353.37561125 276.51321837 -353.3125 273.125 C-353.30379883 272.3530127 -353.29509766 271.58102539 -353.28613281 270.78564453 C-352.88605915 243.40819022 -336.99011967 218.56268857 -318.10400391 199.80761719 C-307.20656754 189.5725216 -287.76364359 175.125 -272.3125 175.125 C-272.28671875 174.50496094 -272.2609375 173.88492188 -272.234375 173.24609375 C-271.00214739 154.00653998 -263.3748778 136.30973933 -250.3125 122.125 C-249.51457031 121.23554688 -248.71664062 120.34609375 -247.89453125 119.4296875 C-234.34557876 105.06019284 -217.65600617 96.13207505 -198.3125 92.125 C-197.56742188 91.93808594 -196.82234375 91.75117188 -196.0546875 91.55859375 C-192.03468177 90.92295182 -188.06347706 90.9780165 -184 91 C-182.68225586 91.00398804 -182.68225586 91.00398804 -181.33789062 91.00805664 C-159.91408487 91.1610285 -159.91408487 91.1610285 -153.3125 93.125 C-153.044375 92.41214844 -152.77625 91.69929688 -152.5 90.96484375 C-146.13342588 75.73951683 -135.12627359 62.34191253 -123.73681641 50.60058594 C-122.42577953 49.24235712 -121.13936442 47.86047548 -119.85546875 46.4765625 C-109.65837087 35.75523571 -97.13056126 27.40457812 -84.3125 20.125 C-83.74047852 19.79935059 -83.16845703 19.47370117 -82.57910156 19.13818359 C-56.71703988 4.66925601 -29.24897699 0.09674414 0 0 Z " fill="#4BB83F" transform="translate(521.3125,167.875)"/>
<path d="M0 0 C1.19262451 -0.00475342 2.38524902 -0.00950684 3.61401367 -0.0144043 C15.105119 0.00724224 25.56686839 1.21847128 36.6875 4.125 C37.40164063 4.30627441 38.11578125 4.48754883 38.8515625 4.67431641 C57.08992584 9.38460558 75.43510324 16.91696232 90.6875 28.125 C91.63423584 28.80973389 91.63423584 28.80973389 92.60009766 29.50830078 C127.76306275 55.13173573 151.84932816 89.49126746 161.6875 132.125 C161.6875 132.785 161.6875 133.445 161.6875 134.125 C162.76511597 134.10143433 162.76511597 134.10143433 163.86450195 134.07739258 C206.1578388 133.278005 242.90402489 144.65195814 274.03881836 174.02368164 C282.13216049 181.90090424 288.51838284 190.70016812 294.6875 200.125 C295.29207031 201.01703125 295.89664063 201.9090625 296.51953125 202.828125 C302.99547717 212.87523898 307.08470408 224.54237099 310.5 235.9375 C310.694729 236.58146729 310.88945801 237.22543457 311.09008789 237.88891602 C320.9597694 272.47843391 313.20196157 308.09726477 296.19921875 338.8984375 C293.21025531 344.08669618 289.74823735 348.71263456 285.6875 353.125 C285.089375 352.465 284.49125 351.805 283.875 351.125 C268.63871833 336.01783936 248.78689894 331.88817074 227.97998047 331.87353516 C198.45007008 332.38823264 179.53777238 349.06296425 159.9128418 368.76928711 C158.36165273 370.32589389 156.80510608 371.87700171 155.24804688 373.42773438 C150.36373357 378.3091426 145.56870619 383.22531956 141.10083008 388.49731445 C140.63443115 389.03445068 140.16803223 389.57158691 139.6875 390.125 C139.30058424 390.64907063 138.91366848 391.17314125 138.515028 391.7130928 C135.74641741 393.85205933 133.48676813 393.43000928 130.03372192 393.34320068 C129.03455205 393.32424417 129.03455205 393.32424417 128.01519692 393.3049047 C125.90522906 393.26069371 123.79676631 393.19468526 121.6875 393.125 C120.43116634 393.09094307 119.17483269 393.05688614 117.88042831 393.02179718 C115.18256003 392.94472138 112.48511907 392.86314396 109.78756905 392.77645493 C88.14353205 392.0964354 66.50055927 392.0179851 44.84814453 391.99902344 C43.61138443 391.99793936 43.61138443 391.99793936 42.34963927 391.99683338 C33.6146428 391.98978314 24.87964784 391.98730583 16.14464878 391.98701389 C3.9504906 391.9865073 -8.24362888 391.97411149 -20.43777466 391.95733643 C-22.3742119 391.95473159 -24.31064915 391.95213277 -26.24708641 391.9495399 C-29.17773284 391.94560326 -32.10837925 391.94165636 -35.03902563 391.93767868 C-45.99509116 391.92283993 -56.95115774 391.90915598 -67.90722656 391.89697266 C-69.40364367 391.89530231 -69.40364367 391.89530231 -70.93029143 391.89359823 C-87.16200248 391.87595276 -103.39368864 391.87316038 -119.62540768 391.87482306 C-136.38831382 391.87610465 -153.15112796 391.85832151 -169.91399872 391.82380509 C-180.20517462 391.80326864 -190.49612916 391.79773076 -200.78731652 391.8121334 C-207.82903149 391.82063008 -214.87057457 391.81076339 -221.91225331 391.7868239 C-225.96151386 391.77360814 -230.01036124 391.76817168 -234.059618 391.78494453 C-268.81084602 391.91751113 -297.65746337 384.24438208 -323.12109375 359.3828125 C-334.75945039 347.41865427 -342.87986944 333.21967051 -348.5 317.5625 C-348.75031982 316.86600342 -349.00063965 316.16950684 -349.25854492 315.4519043 C-352.60678962 305.80121454 -353.617543 297.17157744 -353.5 286.9375 C-353.4899292 285.73367676 -353.4798584 284.52985352 -353.46948242 283.28955078 C-353.43208607 279.90093637 -353.37561125 276.51321837 -353.3125 273.125 C-353.30379883 272.3530127 -353.29509766 271.58102539 -353.28613281 270.78564453 C-352.88605915 243.40819022 -336.99011967 218.56268857 -318.10400391 199.80761719 C-307.20656754 189.5725216 -287.76364359 175.125 -272.3125 175.125 C-272.28671875 174.50496094 -272.2609375 173.88492188 -272.234375 173.24609375 C-271.00214739 154.00653998 -263.3748778 136.30973933 -250.3125 122.125 C-249.51457031 121.23554688 -248.71664062 120.34609375 -247.89453125 119.4296875 C-234.34557876 105.06019284 -217.65600617 96.13207505 -198.3125 92.125 C-197.56742188 91.93808594 -196.82234375 91.75117188 -196.0546875 91.55859375 C-192.03468177 90.92295182 -188.06347706 90.9780165 -184 91 C-182.68225586 91.00398804 -182.68225586 91.00398804 -181.33789062 91.00805664 C-159.91408487 91.1610285 -159.91408487 91.1610285 -153.3125 93.125 C-153.044375 92.41214844 -152.77625 91.69929688 -152.5 90.96484375 C-146.13342588 75.73951683 -135.12627359 62.34191253 -123.73681641 50.60058594 C-122.42577953 49.24235712 -121.13936442 47.86047548 -119.85546875 46.4765625 C-109.65837087 35.75523571 -97.13056126 27.40457812 -84.3125 20.125 C-83.74047852 19.79935059 -83.16845703 19.47370117 -82.57910156 19.13818359 C-56.71703988 4.66925601 -29.24897699 0.09674414 0 0 Z M-55.3125 21.125 C-56.22386719 21.42277344 -57.13523437 21.72054687 -58.07421875 22.02734375 C-70.16712535 26.14069738 -80.94373432 32.75165551 -91.3125 40.125 C-92.09625 40.681875 -92.88 41.23875 -93.6875 41.8125 C-110.79157909 54.75612742 -124.68153191 71.0002571 -134.3125 90.125 C-134.83714844 91.13691406 -135.36179687 92.14882813 -135.90234375 93.19140625 C-141.17375966 102.70488349 -141.17375966 102.70488349 -143.3125 113.125 C-144.26511719 112.71507812 -145.21773437 112.30515625 -146.19921875 111.8828125 C-147.46613184 111.3385091 -148.73305971 110.79424009 -150 110.25 C-150.62583984 109.98058594 -151.25167969 109.71117187 -151.89648438 109.43359375 C-153.69982231 108.65938584 -155.50611363 107.89206836 -157.3125 107.125 C-158.16457031 106.75117188 -159.01664063 106.37734375 -159.89453125 105.9921875 C-174.46091665 100.76805574 -195.59476999 102.04727649 -209.6328125 108.3046875 C-210.86280349 108.90447795 -212.08944908 109.51118173 -213.3125 110.125 C-213.9219043 110.41407227 -214.53130859 110.70314453 -215.15917969 111.00097656 C-230.96579457 118.60533098 -244.33416285 131.21460476 -250.71484375 147.76171875 C-251.6924406 150.86845891 -252.55469589 153.95846141 -253.3125 157.125 C-253.4882959 157.75140381 -253.6640918 158.37780762 -253.84521484 159.02319336 C-254.33919033 161.2450507 -254.44186119 163.22192921 -254.4453125 165.49609375 C-254.44660156 166.31787109 -254.44789063 167.13964844 -254.44921875 167.98632812 C-254.44535156 168.83646484 -254.44148438 169.68660156 -254.4375 170.5625 C-254.44136719 171.40876953 -254.44523437 172.25503906 -254.44921875 173.12695312 C-254.44275437 177.25445952 -254.353772 181.10040106 -253.3125 185.125 C-253.9209375 185.07859375 -254.529375 185.0321875 -255.15625 184.984375 C-273.02947019 184.24841887 -289.96587531 191.53194643 -303.3125 203.125 C-304.52679688 204.10726562 -304.52679688 204.10726562 -305.765625 205.109375 C-322.49890601 219.1735437 -330.33719458 238.71467696 -332.3125 260.125 C-332.46094744 263.08506177 -332.49740051 266.03658072 -332.5 269 C-332.51224609 269.75796875 -332.52449219 270.5159375 -332.53710938 271.296875 C-332.54229837 273.24101857 -332.43559112 275.18475009 -332.3125 277.125 C-331.6525 277.785 -330.9925 278.445 -330.3125 279.125 C-329.56613281 279.0425 -328.81976563 278.96 -328.05078125 278.875 C-323.86896166 279.25679237 -322.07115451 282.0944294 -319.5 285.125 C-318.4306465 286.33027862 -317.36033534 287.53470825 -316.2890625 288.73828125 C-315.77504883 289.32432129 -315.26103516 289.91036133 -314.73144531 290.51416016 C-308.05083621 298.09823773 -300.42624415 304.16552539 -292.3125 310.125 C-291.18714844 310.9603125 -291.18714844 310.9603125 -290.0390625 311.8125 C-251.51136561 338.97378823 -198.31421486 343.90651749 -153.09765625 336.08984375 C-140.16742173 333.70801042 -127.7078341 330.4923701 -115.3125 326.125 C-114.61866211 325.88668457 -113.92482422 325.64836914 -113.20996094 325.40283203 C-97.67242904 320.04087467 -83.22926617 312.48820664 -69.09863281 304.140625 C-67.46527866 303.2118725 -65.77702645 302.38142927 -64.0859375 301.5625 C-61.13293281 299.96538197 -59.40810807 298.7479778 -57.3125 296.125 C-56.80532027 292.88090086 -56.80532027 292.88090086 -57.03125 289.19140625 C-57.04837036 288.49801147 -57.06549072 287.8046167 -57.08312988 287.09020996 C-57.12237728 285.57422716 -57.17058098 284.05845639 -57.2265625 282.54299927 C-57.3150917 280.05207807 -57.37243395 277.56205767 -57.421875 275.07006836 C-57.52966334 269.75438314 -57.66945259 264.43983536 -57.8125 259.125 C-57.86086661 257.27083827 -57.90904477 255.41667161 -57.95703125 253.5625 C-58.0733562 249.08327378 -58.1922036 244.60412125 -58.3125 240.125 C-62.06315433 238.96550111 -65.8195685 238.87895724 -69.7109375 238.73046875 C-71.17452054 238.66168198 -72.63806137 238.59199224 -74.1015625 238.52148438 C-76.39434366 238.41430152 -78.68679688 238.31252643 -80.98046875 238.22631836 C-83.20424934 238.14043871 -85.42589633 238.03107409 -87.6484375 237.91796875 C-88.32675629 237.89800339 -89.00507507 237.87803802 -89.70394897 237.85746765 C-94.6060612 237.58096738 -97.52971534 236.2118785 -101.3125 233.125 C-104.25556733 227.94926089 -104.92896344 222.95740079 -105.3125 217.125 C-104.60712601 217.77563416 -103.90175201 218.42626831 -103.17500305 219.09661865 C-99.90012227 221.41721254 -98.46411672 221.61414959 -94.51245117 221.57910156 C-93.37164597 221.57879944 -92.23084076 221.57849731 -91.0554657 221.57818604 C-89.83446671 221.55754089 -88.61346771 221.53689575 -87.35546875 221.515625 C-85.46831902 221.50713531 -85.46831902 221.50713531 -83.54304504 221.49847412 C-80.21027215 221.47990044 -76.87860784 221.44401116 -73.54614258 221.3996582 C-70.14088485 221.35862121 -66.73551225 221.34044527 -63.33007812 221.3203125 C-56.65724707 221.2762313 -49.9849375 221.20930697 -43.3125 221.125 C-43.31526538 221.72760965 -43.31803076 222.33021931 -43.32087994 222.95108986 C-43.38717607 237.62402317 -43.43679824 252.29694763 -43.46793652 266.9699955 C-43.48339559 274.06582651 -43.50446665 281.16155745 -43.53881836 288.25732422 C-43.57194985 295.10431238 -43.58935046 301.95119646 -43.59713173 308.79825974 C-43.60267749 311.41135673 -43.61350688 314.024448 -43.62969017 316.63750076 C-43.65144674 320.29573138 -43.65446758 323.95353157 -43.65307617 327.61181641 C-43.663862 328.6936319 -43.67464783 329.77544739 -43.6857605 330.89004517 C-43.66326858 336.350061 -43.55496872 340.49602552 -40.3125 345.125 C-37.3871715 348.01791469 -35.3149794 348.50220045 -31.25610352 348.51318359 C-30.25148575 348.52264008 -29.24686798 348.53209656 -28.21180725 348.5418396 C-26.59295876 348.53273056 -26.59295876 348.53273056 -24.94140625 348.5234375 C-23.82692612 348.52630768 -22.71244598 348.52917786 -21.56419373 348.53213501 C-19.20807385 348.53417582 -16.85193704 348.52864481 -14.49584961 348.51611328 C-10.89202893 348.50007578 -7.2893324 348.51595444 -3.68554688 348.53515625 C-1.39583086 348.53317353 0.89388446 348.52932925 3.18359375 348.5234375 C4.26080185 348.52951019 5.33800995 348.53558289 6.44786072 348.5418396 C13.58414997 348.55408962 13.58414997 348.55408962 19.6875 345.125 C23.27804963 341.14974863 23.81351923 337.55045966 23.80775452 332.31610107 C23.80912918 331.35138885 23.81050385 330.38667664 23.81192017 329.39273071 C23.80832489 328.34112762 23.80472961 327.28952454 23.80102539 326.20605469 C23.80124443 324.53731796 23.80124443 324.53731796 23.8014679 322.83486938 C23.8007709 319.15551813 23.79298839 315.47621742 23.78515625 311.796875 C23.78329132 309.24668404 23.78186777 306.69649272 23.78086853 304.14630127 C23.77743972 298.11862671 23.76955717 292.09097386 23.75951904 286.063308 C23.74833762 279.1999868 23.74284234 272.33666474 23.73782361 265.4733367 C23.72737401 251.35721441 23.70978721 237.2411082 23.6875 223.125 C24.35069244 223.13388245 25.01388489 223.14276489 25.69717407 223.1519165 C32.60776134 223.24049956 39.51818696 223.30078015 46.42919922 223.34472656 C49.00739088 223.36482563 51.58553704 223.39210941 54.16357422 223.42675781 C57.87218461 223.47534847 61.58019156 223.49798658 65.2890625 223.515625 C67.01438705 223.54659271 67.01438705 223.54659271 68.77456665 223.57818604 C75.06078727 223.57994348 78.94168503 223.41275528 83.6875 219.125 C85.52050909 217.01924357 85.52050909 217.01924357 86.6875 215.125 C88.44704753 219.63384055 89.20578487 223.28767452 88.6875 228.125 C86.23090598 233.03818805 83.76282368 235.11601771 78.6875 237.125 C65.73610772 240.36284807 52.03234212 238.75430994 38.6875 239.125 C38.3575 264.535 38.0275 289.945 37.6875 316.125 C45.90510788 318.86420263 53.57519206 321.14389777 62 322.75 C63.09086914 322.96237305 64.18173828 323.17474609 65.30566406 323.39355469 C73.40020428 324.94234687 81.48068097 326.32177941 89.6875 327.125 C90.99992676 327.25418823 90.99992676 327.25418823 92.33886719 327.38598633 C101.22041407 328.17183388 110.06054857 328.31118623 118.96972656 328.31030273 C121.42010007 328.31248451 123.8700183 328.3307043 126.3203125 328.34960938 C162.10457866 328.47829906 198.53325769 320.10447503 226.6875 297.125 C227.35007812 296.61453125 228.01265625 296.1040625 228.6953125 295.578125 C251.20062786 277.61424099 262.4269971 245.01077558 265.57421875 217.29101562 C265.69216797 216.18790039 265.69216797 216.18790039 265.8125 215.0625 C265.89886719 214.29228516 265.98523438 213.52207031 266.07421875 212.72851562 C266.28299167 210.86115783 266.48588626 208.99314431 266.6875 207.125 C272.51552976 215.83089061 276.507356 224.08691189 279.6875 234.125 C280.2484793 235.77135228 280.81075903 237.41726271 281.375 239.0625 C282.58168391 242.72368869 283.65988432 246.40977409 284.6875 250.125 C285.3475 250.125 286.0075 250.125 286.6875 250.125 C290.88619003 233.85507612 285.07142373 216.32845535 276.95581055 202.32299805 C260.15845812 174.45735606 233.04141339 158.25053015 202.625 149.1875 C196.99687859 147.82627994 191.46687165 147.33075773 185.6875 147.125 C184.8826416 147.09245117 184.0777832 147.05990234 183.24853516 147.02636719 C160.92876537 146.16549084 160.92876537 146.16549084 139.6875 152.125 C139.73390625 151.05765625 139.7803125 149.9903125 139.828125 148.890625 C140.84002252 114.8993652 126.72056753 82.85504232 103.96484375 57.99609375 C89.99386871 43.23065997 73.917731 32.913818 55.6875 24.125 C54.62897827 23.60123779 54.62897827 23.60123779 53.54907227 23.06689453 C47.43710164 20.17214863 41.19833649 18.52356783 34.625 17 C33.51882324 16.74138184 32.41264648 16.48276367 31.27294922 16.21630859 C1.48462883 9.42431082 -26.50158215 11.30391983 -55.3125 21.125 Z " fill="#147F36" transform="translate(521.3125,167.875)"/>
<path d="M0 0 C3.50324992 3.04758245 6.32548076 6.2100983 9 10 C9.70769531 10.97453125 9.70769531 10.97453125 10.4296875 11.96875 C15.13672116 20.14924987 14.02209869 32.03647684 12.48046875 41.03125 C10.14127872 48.12948182 4.61072917 53.24372615 -0.5078125 58.46337891 C-2.91672036 60.94401799 -5.23585853 63.50497677 -7.5625 66.0625 C-8.47495206 67.05887622 -9.38771092 68.05497157 -10.30078125 69.05078125 C-17.85998694 77.31011598 -25.40190399 85.57026319 -32.640625 94.11328125 C-38.39208936 100.88750559 -44.26968232 107.49082533 -50.35839844 113.96386719 C-53.5085708 117.33298502 -56.49873643 120.76483053 -59.375 124.375 C-63.80438236 129.91172795 -68.62467263 135.03478493 -73.50927734 140.16748047 C-77.23573543 144.0875208 -80.85272138 148.07725958 -84.39697266 152.1628418 C-86.51232008 154.58714721 -88.69184404 156.94925205 -90.875 159.3125 C-94.08833411 162.82888808 -97.16077398 166.3970898 -100.125 170.125 C-104.83530206 175.97082131 -109.96997444 181.38357365 -115.15283203 186.81103516 C-119.01459622 190.85945921 -122.77246732 194.97052471 -126.43701172 199.19848633 C-128.42790258 201.49320418 -130.46101836 203.74799043 -132.5 206 C-135.18983431 208.98062721 -137.86310364 211.97245233 -140.5 215 C-145.41349353 220.63639833 -150.41702692 226.19330484 -155.48046875 231.6953125 C-159.56158094 236.13708112 -163.53787589 240.6062959 -167.3125 245.3125 C-171.94421018 251.0548334 -176.94823463 256.400643 -181.9921875 261.77734375 C-184.84797634 264.82404638 -187.61624996 267.93562802 -190.34375 271.09765625 C-192.28144472 273.32326315 -194.26534473 275.50368039 -196.25 277.6875 C-199.78641676 281.60411173 -203.22445224 285.5909542 -206.625 289.625 C-207.09574951 290.18098877 -207.56649902 290.73697754 -208.05151367 291.30981445 C-210.02432425 293.64232596 -211.98478638 295.98113136 -213.90234375 298.359375 C-222.11035849 308.32487054 -233.19215808 314.56928449 -246.04345703 316.27050781 C-259.28463293 317.39728247 -270.45202429 314.07974939 -281 306 C-282.03125 305.21625 -283.0625 304.4325 -284.125 303.625 C-286.99957193 301.00039084 -289.49389721 298.2615807 -292.015625 295.3046875 C-294.29533605 292.65699159 -296.64266444 290.07878224 -299 287.5 C-302.45699028 283.70930327 -305.86735148 279.88612868 -309.234375 276.015625 C-314.44914276 270.06248304 -319.79393966 264.22379609 -325.125 258.375 C-327.92757381 255.29690434 -330.70967875 252.2069813 -333.4375 249.0625 C-336.86768576 245.11332633 -340.41003518 241.26977695 -343.95288086 237.42211914 C-347.06599299 234.03537381 -350.11252082 230.60093751 -353.125 227.125 C-355.54550142 224.38176506 -358.02204178 221.69118757 -360.5 219 C-364.14790436 215.03734555 -367.74537074 211.03901761 -371.27734375 206.97265625 C-375.73155369 201.87203035 -380.27073032 196.84550821 -384.890625 191.89453125 C-409.41249176 165.61177523 -409.41249176 165.61177523 -409.20703125 147.53125 C-408.46929002 134.94789013 -400.52416211 124.72133679 -391.66015625 116.28515625 C-379.93867255 106.21604029 -366.00295246 100.55171999 -350.546875 100.7265625 C-330.91057557 102.24037413 -317.7721697 117.72153118 -305.6640625 131.84765625 C-301.21397751 136.99955804 -296.34524641 141.72328607 -291.5 146.5 C-286.08028686 151.84305525 -280.76502061 157.17762733 -275.81396484 162.95898438 C-272.08630675 167.15322686 -268.04848406 171.0534211 -264.0625 175 C-262.75055664 176.30517578 -262.75055664 176.30517578 -261.41210938 177.63671875 C-259.27702551 179.76013549 -257.13962795 181.88116378 -255 184 C-251.45879942 182.49089988 -249.18395635 180.42880686 -246.48046875 177.7109375 C-245.62259766 176.85113281 -244.76472656 175.99132812 -243.88085938 175.10546875 C-242.99205078 174.20441406 -242.10324219 173.30335938 -241.1875 172.375 C-240.31029297 171.49714844 -239.43308594 170.61929688 -238.52929688 169.71484375 C-234.81126268 165.97178165 -231.16944731 162.21692521 -227.72583008 158.21923828 C-223.83564925 153.74471324 -219.68292866 149.57387814 -215.46875 145.40625 C-214.67400269 144.61528931 -213.87925537 143.82432861 -213.0604248 143.00939941 C-209.69464452 139.65981427 -206.32288952 136.3162673 -202.95166016 132.97216797 C-200.47609773 130.51479061 -198.00361917 128.05433942 -195.53125 125.59375 C-194.78000854 124.85080688 -194.02876709 124.10786377 -193.25476074 123.34240723 C-189.2389271 119.34505792 -185.4303569 115.24924294 -181.73254395 110.95739746 C-178.74906846 107.58671971 -175.54549883 104.44296968 -172.34375 101.28125 C-171.2848053 100.22798523 -171.2848053 100.22798523 -170.20446777 99.15344238 C-167.22102625 96.18616234 -164.2315929 93.22494637 -161.24267578 90.26318359 C-159.04509421 88.08381535 -156.85062062 85.90135053 -154.65625 83.71875 C-153.99250366 83.063302 -153.32875732 82.407854 -152.64489746 81.73254395 C-149.50771153 78.61161184 -146.48220457 75.45081406 -143.59570312 72.09570312 C-139.55828773 67.41926419 -135.20146979 63.09438316 -130.8125 58.75 C-129.52049683 57.46367676 -129.52049683 57.46367676 -128.20239258 56.15136719 C-124.54986017 52.51505061 -120.89136365 48.88475629 -117.23339844 45.25390625 C-114.54934844 42.58802403 -111.86836759 39.9190819 -109.1875 37.25 C-108.37063721 36.44143555 -107.55377441 35.63287109 -106.7121582 34.79980469 C-102.49377158 30.59933518 -98.45283764 26.31960623 -94.57073975 21.80673218 C-90.94997961 17.64197868 -87.02493519 13.76057485 -83.13964844 9.84448242 C-82.12895766 8.82222506 -81.12276168 7.79550435 -80.12109375 6.7644043 C-59.26269779 -14.70326922 -24.8038973 -18.07345662 0 0 Z " fill="#3AB12B" transform="translate(790,530)"/>
<path d="M0 0 C0.69480469 0.80179688 1.38960938 1.60359375 2.10546875 2.4296875 C3.13607422 3.64011719 3.13607422 3.64011719 4.1875 4.875 C12.60455957 14.23967554 23.58093829 21.23422263 36.36328125 22.2734375 C50.55045992 22.63829076 63.0293615 19.66937664 74 10 C76.50688989 7.45801365 78.76649918 4.78236598 81 2 C82.14182343 0.66323111 83.28743195 -0.6703176 84.4375 -2 C85.283125 -2.99 86.12875 -3.98 87 -5 C87.33 -4.34 87.66 -3.68 88 -3 C88.56189026 -3.00621872 89.12378052 -3.01243744 89.70269775 -3.0188446 C105.42531641 -3.16744578 121.05294583 -2.68279325 136.75 -1.8125 C138.52451035 -1.71654541 138.52451035 -1.71654541 140.33486938 -1.61865234 C159.6461228 -0.56386766 178.91805394 0.85441843 198.1875 2.5 C199.37766724 2.60146332 200.56783447 2.70292664 201.79406738 2.8074646 C215.24409953 3.9640666 228.68213928 5.23658598 242.11328125 6.59375 C243.37230759 6.71874878 244.63133392 6.84374756 245.92851257 6.97253418 C247.08688126 7.09181274 248.24524994 7.21109131 249.4387207 7.33398438 C250.97989311 7.49078674 250.97989311 7.49078674 252.55220032 7.65075684 C255 8 255 8 257 9 C258.91175089 9.30359566 260.82995571 9.5667527 262.75 9.8125 C272.89382686 11.21702987 282.94612797 13.06097326 293 15 C293.78906738 15.14663086 294.57813477 15.29326172 295.39111328 15.44433594 C306.06040651 17.46039702 322.0700738 20.85351652 329 30 C329.125 32.375 329.125 32.375 328 35 C300.61396269 56.73766711 249.06141638 56.10806995 215.41601562 58.79833984 C212.91554953 59.00704892 210.41908476 59.24378258 207.921875 59.48828125 C195.28494287 60.71628487 182.63742696 61.57349829 169.96337891 62.30273438 C168.65804199 62.37943359 167.35270508 62.45613281 166.0078125 62.53515625 C164.26975342 62.63389038 164.26975342 62.63389038 162.49658203 62.73461914 C160.09672839 62.91676136 157.70172718 63.17349166 155.31617737 63.49227905 C151.02614646 64.03571094 146.76432051 64.24885662 142.44458008 64.38891602 C141.62233507 64.41831142 140.80009007 64.44770683 139.95292854 64.47799301 C137.22525353 64.57406653 134.49742804 64.66436424 131.76953125 64.75390625 C129.81588231 64.81991919 127.86223342 64.88593384 125.90858459 64.95195007 C119.54349222 65.16421349 113.17804848 65.36445277 106.8125 65.5625 C105.72651772 65.5965947 104.64053543 65.63068939 103.52164459 65.66581726 C71.30391771 66.67326036 39.10879839 67.28814342 6.875 67.25 C5.59747046 67.24929945 5.59747046 67.24929945 4.29413223 67.24858475 C-14.95110037 67.23733298 -34.18607876 67.00959991 -53.42578125 66.54296875 C-54.24919636 66.52351952 -55.07261147 66.50407028 -55.92097855 66.48403168 C-66.65244831 66.22481131 -77.35019787 65.7609986 -88.0625 65.0625 C-88.87733353 65.00945206 -89.69216705 64.95640411 -90.5316925 64.90174866 C-92.38581956 64.77856023 -94.23979172 64.65304659 -96.09375 64.52734375 C-102.75702498 64.09450679 -109.42101725 63.8085476 -116.09375 63.56640625 C-137.04224329 62.7988418 -157.83052941 61.7214008 -178.67211914 59.40869141 C-180.19546025 59.23977347 -181.71881606 59.07098797 -183.2421875 58.90234375 C-183.97331757 58.82105225 -184.70444763 58.73976074 -185.45773315 58.65600586 C-191.33671543 58.02312558 -197.21335724 57.65570429 -203.11686707 57.34306335 C-208.68135551 57.04156638 -214.16873669 56.5103488 -219.6875 55.75 C-220.62537354 55.62359131 -221.56324707 55.49718262 -222.52954102 55.36694336 C-285.66888454 46.62583026 -285.66888454 46.62583026 -298 35 C-298.6875 32.0625 -298.6875 32.0625 -298 29 C-274.79015689 7.08717753 -224.82744077 7.89738507 -194.375 4.75 C-193.17405701 4.62537384 -193.17405701 4.62537384 -191.94885254 4.49822998 C-182.8827159 3.56757218 -173.82882893 2.79043782 -164.72421265 2.35418701 C-161.66378108 2.19974872 -158.67345035 1.95281458 -155.6394043 1.5144043 C-151.09247014 0.87172701 -146.56255161 0.5867826 -141.98046875 0.31640625 C-140.99408417 0.25661087 -140.00769958 0.19681549 -138.99142456 0.13520813 C-135.72370253 -0.06030297 -132.45567513 -0.24972103 -129.1875 -0.4375 C-128.05496796 -0.50314148 -126.92243591 -0.56878296 -125.75558472 -0.63641357 C-101.18892785 -2.04638823 -76.61198397 -2.94673419 -52.01678467 -3.67855835 C-45.69460824 -3.87043759 -39.37657036 -4.10144103 -33.05818176 -4.39263916 C-29.56376314 -4.55276736 -26.06874515 -4.69500118 -22.57345581 -4.83465576 C-21.00445538 -4.90228596 -19.4358059 -4.97873613 -17.8677063 -5.0647583 C-15.75970435 -5.179664 -13.65266251 -5.26346058 -11.54296875 -5.33984375 C-10.38821045 -5.39519287 -9.23345215 -5.45054199 -8.04370117 -5.50756836 C-3.98740993 -4.83114023 -2.60921451 -3.0881246 0 0 Z " fill="#C6E5E0" transform="translate(497,823)"/>
<path d="M0 0 C3.20621559 1.84905594 5.51481314 4.28091321 8 7 C9.07894531 8.14082031 9.07894531 8.14082031 10.1796875 9.3046875 C14.92897759 14.4483823 19.348362 19.84033636 23.75 25.28125 C25.93501569 27.92147729 28.19171391 30.4672972 30.5 33 C34.41891252 37.29991791 38.09170869 41.75919547 41.75 46.28125 C43.93501569 48.92147729 46.19171391 51.4672972 48.5 54 C52.41891252 58.29991791 56.09170869 62.75919547 59.75 67.28125 C61.93501569 69.92147729 64.19171391 72.4672972 66.5 75 C70.45398841 79.33974338 74.17675641 83.83049224 77.86328125 88.3984375 C79.78908015 90.74319448 81.77648442 93.00126637 83.8125 95.25 C87.72287301 99.71510034 90.70424699 103.54947507 91.4375 109.625 C90.96099092 113.30092717 90.31596512 115.12500882 88 118 C84.37209055 120.59031783 81.91189754 121.37174635 77.4753418 121.34057617 C76.39459885 121.34034958 75.3138559 121.34012299 74.20036316 121.33988953 C73.0449855 121.32440567 71.88960785 121.30892181 70.69921875 121.29296875 C69.50770706 121.28872391 68.31619537 121.28447906 67.08857727 121.28010559 C63.28798704 121.26333093 59.48792962 121.22567959 55.6875 121.1875 C53.10873162 121.17245166 50.52995492 121.15876351 47.95117188 121.14648438 C41.6339332 121.11343127 35.31700467 121.06324319 29 121 C29.00276538 121.58107293 29.00553076 122.16214586 29.00837994 122.76082706 C29.07470855 136.91671086 29.12431398 151.07257128 29.15543652 165.22857761 C29.17088821 172.07439832 29.19194506 178.92011513 29.22631836 185.76586914 C29.25947735 192.3729472 29.27685596 198.97994574 29.28463173 205.58711052 C29.29017282 208.10727576 29.30099315 210.62743512 29.31719017 213.1475544 C29.33898136 216.67865872 29.34196613 220.20931772 29.34057617 223.74047852 C29.351362 224.78129578 29.36214783 225.82211304 29.3732605 226.89447021 C29.34523811 233.47767847 28.74283191 238.57146011 24.5 243.875 C21.51983526 246.11012355 18.63511472 246.13716958 15.05712891 246.17700195 C13.55008896 246.19625481 13.55008896 246.19625481 12.01260376 246.21589661 C10.92821014 246.22328354 9.84381653 246.23067047 8.7265625 246.23828125 C7.61066742 246.246353 6.49477234 246.25442474 5.34506226 246.26274109 C2.98298698 246.27657617 0.62089176 246.2873009 -1.74121094 246.29516602 C-5.35389968 246.31239935 -8.96567822 246.35629434 -12.578125 246.40039062 C-14.8723891 246.41051582 -17.16666098 246.41903247 -19.4609375 246.42578125 C-20.54128265 246.44328934 -21.62162781 246.46079742 -22.73471069 246.47883606 C-30.17396528 246.45730877 -30.17396528 246.45730877 -34.09619141 244.28588867 C-37.30458952 240.43358916 -38.25106802 236.87643618 -38.24050903 231.91899109 C-38.24325836 230.91924759 -38.24600769 229.91950409 -38.24884033 228.88946533 C-38.24164978 227.80405457 -38.23445923 226.7186438 -38.22705078 225.6003418 C-38.22734283 224.44869034 -38.22763489 223.29703888 -38.22793579 222.11048889 C-38.22654327 218.30665535 -38.2109854 214.50301805 -38.1953125 210.69921875 C-38.1915821 208.06077685 -38.18873526 205.42233356 -38.18673706 202.78388977 C-38.18052692 196.55081227 -38.16412243 190.31780513 -38.14403808 184.08475858 C-38.12166456 176.98684322 -38.110682 169.88892446 -38.10064721 162.7909826 C-38.07975577 148.19395215 -38.04458886 133.59697706 -38 119 C-39.05449593 119.0199855 -39.05449593 119.0199855 -40.1302948 119.04037476 C-46.76553987 119.1607531 -53.40047894 119.25202464 -60.03657055 119.31087303 C-63.44811385 119.34214605 -66.85875267 119.38453896 -70.26977539 119.45263672 C-74.19406181 119.53048816 -78.11798604 119.55945163 -82.04296875 119.5859375 C-83.26396774 119.61690521 -84.48496674 119.64787292 -85.7429657 119.67977905 C-94.0083471 119.68306248 -94.0083471 119.68306248 -96.88471985 117.70178223 C-100.01081925 114.06781248 -100.9648837 111.04337463 -100.65625 106.3984375 C-99.26473328 101.31277521 -95.47634364 97.81461061 -92 94 C-90.40759735 92.17635906 -88.82630597 90.34341173 -87.24487305 88.51025391 C-85.55596432 86.55493337 -83.85818559 84.60755683 -82.16015625 82.66015625 C-79.54894216 79.65187011 -77.00608262 76.59683506 -74.5 73.5 C-70.38403149 68.41556831 -66.10537281 63.48641797 -61.80566406 58.55786133 C-58.55254742 54.81963917 -55.3673971 51.04064641 -52.25 47.1875 C-48.72330631 42.83061747 -45.02497911 38.67324096 -41.25 34.53125 C-38.92137947 31.9115519 -36.70437053 29.2248469 -34.5 26.5 C-30.84682112 21.987624 -27.04945797 17.64768256 -23.13671875 13.359375 C-20.56583763 10.52059585 -18.07813355 7.6158666 -15.60546875 4.69140625 C-10.87688441 -0.29028966 -6.74800619 -1.38839462 0 0 Z " fill="#FDFDFD" transform="translate(516,270)"/>
<path d="M0 0 C1.98 0.99 1.98 0.99 4 2 C4 2.66 4 3.32 4 4 C5.134375 4.28875 6.26875 4.5775 7.4375 4.875 C8.613125 5.24625 9.78875 5.6175 11 6 C13.66168943 11.32337887 12.53564197 20.05396916 11.4921875 25.79296875 C9.05912388 33.03310467 3.72150052 38.13076663 -1.5078125 43.46337891 C-3.91672036 45.94401799 -6.23585853 48.50497677 -8.5625 51.0625 C-9.47495206 52.05887622 -10.38771092 53.05497157 -11.30078125 54.05078125 C-18.85998694 62.31011598 -26.40190399 70.57026319 -33.640625 79.11328125 C-39.39208936 85.88750559 -45.26968232 92.49082533 -51.35839844 98.96386719 C-54.5085708 102.33298502 -57.49873643 105.76483053 -60.375 109.375 C-64.80438236 114.91172795 -69.62467263 120.03478493 -74.50927734 125.16748047 C-78.23573543 129.0875208 -81.85272138 133.07725958 -85.39697266 137.1628418 C-87.51232008 139.58714721 -89.69184404 141.94925205 -91.875 144.3125 C-95.08833411 147.82888808 -98.16077398 151.3970898 -101.125 155.125 C-105.83530206 160.97082131 -110.96997444 166.38357365 -116.15283203 171.81103516 C-120.01459622 175.85945921 -123.77246732 179.97052471 -127.43701172 184.19848633 C-129.42790258 186.49320418 -131.46101836 188.74799043 -133.5 191 C-136.18983431 193.98062721 -138.86310364 196.97245233 -141.5 200 C-146.41349353 205.63639833 -151.41702692 211.19330484 -156.48046875 216.6953125 C-160.56158094 221.13708112 -164.53787589 225.6062959 -168.3125 230.3125 C-172.94421018 236.0548334 -177.94823463 241.400643 -182.9921875 246.77734375 C-185.84797634 249.82404638 -188.61624996 252.93562802 -191.34375 256.09765625 C-193.28144472 258.32326315 -195.26534473 260.50368039 -197.25 262.6875 C-200.78641676 266.60411173 -204.22445224 270.5909542 -207.625 274.625 C-208.09574951 275.18098877 -208.56649902 275.73697754 -209.05151367 276.30981445 C-211.02432425 278.64232596 -212.98478638 280.98113136 -214.90234375 283.359375 C-223.11035849 293.32487054 -234.19215808 299.56928449 -247.04345703 301.27050781 C-260.28463293 302.39728247 -271.45202429 299.07974939 -282 291 C-283.03125 290.21625 -284.0625 289.4325 -285.125 288.625 C-287.99957193 286.00039084 -290.49389721 283.2615807 -293.015625 280.3046875 C-295.29533605 277.65699159 -297.64266444 275.07878224 -300 272.5 C-303.45699028 268.70930327 -306.86735148 264.88612868 -310.234375 261.015625 C-315.44914276 255.06248304 -320.79393966 249.22379609 -326.125 243.375 C-328.92757381 240.29690434 -331.70967875 237.2069813 -334.4375 234.0625 C-337.86768576 230.11332633 -341.41003518 226.26977695 -344.95288086 222.42211914 C-348.06599299 219.03537381 -351.11252082 215.60093751 -354.125 212.125 C-356.54550142 209.38176506 -359.02204178 206.69118757 -361.5 204 C-365.14790436 200.03734555 -368.74537074 196.03901761 -372.27734375 191.97265625 C-376.73155369 186.87203035 -381.27073032 181.84550821 -385.890625 176.89453125 C-406.86910273 154.40332896 -406.86910273 154.40332896 -407.125 147.75 C-407.08375 146.8425 -407.0425 145.935 -407 145 C-406.40832031 144.80664062 -405.81664062 144.61328125 -405.20703125 144.4140625 C-404.41683594 144.15367187 -403.62664062 143.89328125 -402.8125 143.625 C-402.03519531 143.36976563 -401.25789063 143.11453125 -400.45703125 142.8515625 C-397.93632321 141.97793078 -395.46935722 141.00879602 -393 140 C-392.37996094 140.680625 -391.75992187 141.36125 -391.12109375 142.0625 C-380.65306496 153.52095364 -370.1615774 164.95183115 -359.11328125 175.85546875 C-357.21441884 177.78241046 -355.43989166 179.75312002 -353.6875 181.8125 C-350.477611 185.57134863 -347.01210165 189.02742679 -343.5 192.5 C-339.44534466 196.50912299 -335.56021844 200.55864508 -331.87109375 204.91015625 C-328.8591824 208.27419085 -325.61576911 211.40400774 -322.40429688 214.57617188 C-319.0492277 217.90598332 -315.90266971 221.3394031 -312.83984375 224.94140625 C-310.04439912 228.06921797 -307.03822988 230.98253597 -304.05322266 233.92724609 C-300.75941323 237.19380581 -297.6851059 240.57902865 -294.67578125 244.10546875 C-292.86022622 246.15801931 -290.95240464 248.07746006 -289 250 C-284.1833403 254.7514438 -279.66318298 259.70750454 -275.6875 265.1875 C-270.23849022 270.88995209 -262.4705425 274.10156286 -254.625 274.375 C-246.39692199 274.30501635 -238.5149602 271.90366277 -232.125 266.625 C-231.42375 265.75875 -230.7225 264.8925 -230 264 C-228.88400119 262.88673648 -227.75811292 261.78333947 -226.625 260.6875 C-223.50624393 257.57549448 -220.62453556 254.30526449 -217.75 250.96875 C-215.5207971 248.46089674 -213.1429125 246.13143192 -210.75 243.78125 C-208.91757513 241.91610326 -207.20646865 239.98072254 -205.5 238 C-203.2544206 235.39352391 -200.95448488 232.91065479 -198.5 230.5 C-196.20673964 228.24202057 -194.03571972 225.94003496 -191.9375 223.5 C-184.9186022 215.37120967 -177.42949639 207.64707799 -170.07421875 199.82421875 C-162.24482775 191.51105732 -162.24482775 191.51105732 -154.5625 183.0625 C-149.81247668 177.73780467 -144.90282019 172.56654115 -140.00415039 167.37915039 C-136.13722048 163.2809545 -132.29649035 159.16352265 -128.5 155 C-123.38502351 149.39275509 -118.18333511 143.87019835 -112.97485352 138.34985352 C-108.93781752 134.06794577 -104.92124548 129.76901661 -100.9375 125.4375 C-95.26531858 119.27082566 -89.53498523 113.15975067 -83.80078125 107.05078125 C-75.34472946 98.04179223 -66.91491492 89.00894788 -58.54492188 79.91992188 C-54.06014241 75.05396593 -49.53755047 70.22376163 -45.01538086 65.39257812 C-41.65663045 61.79716398 -38.33840223 58.17146185 -35.0625 54.5 C-32.03634774 51.11026198 -28.90583338 47.88131202 -25.66796875 44.6953125 C-23.31238467 42.30111229 -21.1334865 39.77232653 -18.953125 37.21875 C-17.52612996 35.59768363 -16.04987112 34.01961224 -14.546875 32.46875 C-5.15223735 22.68032514 -0.04879307 13.75964572 0 0 Z " fill="#076D37" transform="translate(791,545)"/>
<path d="M0 0 C8.07780081 7.51480257 11.70321533 17.75815055 15 28 C15.309375 28.87269531 15.61875 29.74539063 15.9375 30.64453125 C17.51934315 35.10867513 18.49870647 39.2878408 19 44 C19.66 44 20.32 44 21 44 C21.12224626 34.9401941 20.83930594 26.02253886 20 17 C22.19709177 20.29563765 23.00391882 23.06732777 24.0625 26.875 C24.40410156 28.08929688 24.74570312 29.30359375 25.09765625 30.5546875 C27.07586639 38.1078535 27.21856313 45.14508575 27.25 52.9375 C27.2809375 54.80245117 27.2809375 54.80245117 27.3125 56.70507812 C27.42509006 83.79706177 15.90870798 108.13204875 -2 128 C-2.66 128 -3.32 128 -4 128 C-4 128.66 -4 129.32 -4 130 C-5.46759766 129.69255859 -5.46759766 129.69255859 -6.96484375 129.37890625 C-31.40640533 124.32063088 -55.32248807 123.8255365 -77.5625 137.125 C-84.02794797 141.44475106 -91.74729249 147.23975435 -96.14624023 153.67749023 C-97.65442242 155.6969808 -98.77248819 156.78416818 -101 158 C-106.17883087 158.63507688 -111.25372461 158.28395363 -116.4375 157.9375 C-117.82473005 157.8676115 -119.21210464 157.80053269 -120.59960938 157.73632812 C-125.85458909 157.48002168 -131.10225398 157.14139363 -136.34887695 156.75048828 C-149.98429143 155.7481032 -163.64955208 155.431045 -177.3125 155 C-206.9113274 154.06238943 -206.9113274 154.06238943 -217.48046875 153.5 C-218.17481522 153.46455078 -218.86916168 153.42910156 -219.58454895 153.39257812 C-223.49058869 153.16793134 -227.10963372 152.64839438 -231 152 C-230.01 138.14 -229.02 124.28 -228 110 C-222.39 111.32 -216.78 112.64 -211 114 C-207.62609837 114.73220844 -204.26016326 115.45376324 -200.875 116.125 C-200.04154053 116.29040283 -199.20808105 116.45580566 -198.34936523 116.6262207 C-181.2262605 119.95111133 -164.13483661 121.18702993 -146.71777344 121.18530273 C-144.26739993 121.18748451 -141.8174817 121.2057043 -139.3671875 121.22460938 C-103.50884288 121.35356546 -67.25655108 112.92171424 -39 90 C-38.41089844 89.56300781 -37.82179688 89.12601562 -37.21484375 88.67578125 C-18.63167077 74.55256979 -9.33411419 48.70070197 -4 27 C-3.73050537 25.90691528 -3.73050537 25.90691528 -3.45556641 24.79174805 C-2.18038801 19.36720782 -1.43135952 13.97829358 -0.875 8.4375 C-0.74544922 7.21063477 -0.74544922 7.21063477 -0.61328125 5.95898438 C-0.40424459 3.97313606 -0.20144923 1.98663234 0 0 Z " fill="#1F9134" transform="translate(787,374)"/>
<path d="M0 0 C4.63854275 0.10582227 7.05363341 0.61464333 10.32421875 3.9921875 C11.4600567 5.27353848 12.58051243 6.56864373 13.6875 7.875 C14.9185159 9.25430741 16.15293555 10.63058404 17.390625 12.00390625 C17.99970703 12.68469238 18.60878906 13.36547852 19.23632812 14.06689453 C44.13080494 41.35295038 81.79291067 56.27534727 118 60 C119.07765625 60.11085938 120.1553125 60.22171875 121.265625 60.3359375 C153.81723665 63.13689013 186.20494783 58.85032392 217 48 C217.69383789 47.76168457 218.38767578 47.52336914 219.10253906 47.27783203 C234.67651965 41.90329633 249.07226727 34.29387408 263.265625 25.98583984 C264.80457354 25.11108278 266.3846136 24.30951506 267.96875 23.51953125 C270.4590669 22.17586343 272.19142209 21.17872728 274 19 C275.00926855 14.9577234 275.16792589 11.15112796 275 7 C275.33 7 275.66 7 276 7 C276.01981934 8.10585449 276.03963867 9.21170898 276.06005859 10.35107422 C276.49036084 36.6966919 276.49036084 36.6966919 277.9375 63 C278.01210449 64.00401855 278.08670898 65.00803711 278.16357422 66.04248047 C278.5264647 70.34744509 279.07443355 74.45603884 280.02467346 78.67236328 C280.20673623 79.48279083 280.388799 80.29321838 280.57637882 81.12820435 C280.71617381 81.74589691 280.8559688 82.36358948 281 83 C242.57937846 84.70749645 204.31636517 85.21683936 165.85760498 84.79034424 C161.88809955 84.74949159 157.91858142 84.71676384 153.94897461 84.68798828 C147.40568491 84.64054796 140.86254471 84.58409805 134.31939888 84.51981354 C131.88589201 84.49669016 129.45236146 84.47590577 127.01881218 84.45778656 C114.92381573 84.36207044 102.89713664 84.05884732 90.83813477 83.07519531 C89.86271445 82.99595699 88.88729414 82.91671867 87.88231564 82.83507919 C64.9414546 80.77793446 44.53227049 70.86977513 28 55 C27.113125 54.154375 26.22625 53.30875 25.3125 52.4375 C24.549375 51.633125 23.78625 50.82875 23 50 C22.48179687 49.47664063 21.96359375 48.95328125 21.4296875 48.4140625 C15.71424683 42.33980492 11.9323793 35.27963432 8 28 C7.58621094 27.30132812 7.17242187 26.60265625 6.74609375 25.8828125 C2.56716491 18.50823219 0 8.4060859 0 0 Z " fill="#219533" transform="translate(189,445)"/>
<path d="M0 0 C1.79948984 0.93541979 3.6180399 1.81905071 5.44580078 2.69775391 C36.50539566 17.97370282 61.68938089 46.51219125 73.15258789 79.18969727 C74.1034923 82.08274967 74.96005956 84.99721575 75.78564453 87.92822266 C76.02927734 88.73904297 76.27291016 89.54986328 76.52392578 90.38525391 C77.73365906 94.68927094 77.96996334 98.5045712 77.78564453 102.92822266 C76.0561995 99.77629037 75.14230509 96.70866661 74.22314453 93.24072266 C71.83007692 85.23974943 67.92745032 78.21510668 63.8762207 70.94726562 C62.78779583 68.93220546 61.79357738 66.8884022 60.80517578 64.82275391 C58.91647571 61.00847603 56.62233943 57.74752913 53.97314453 54.42822266 C53.53010986 53.86562744 53.0870752 53.30303223 52.63061523 52.72338867 C51.35828808 51.11756353 50.07235923 49.52254259 48.78564453 47.92822266 C47.91939453 46.84347656 47.91939453 46.84347656 47.03564453 45.73681641 C34.22048683 30.39066506 18.25581689 20.21259802 0.78564453 10.92822266 C0.12097168 10.57034668 -0.54370117 10.2124707 -1.22851562 9.84375 C-28.71904289 -4.51127873 -64.34545335 -6.75200681 -94.21435547 -0.07177734 C-95.89639259 0.55509851 -97.567258 1.21457557 -99.21435547 1.92822266 C-100.99985945 2.37055295 -102.79227059 2.78558226 -104.58935547 3.17822266 C-140.15765095 11.98354459 -170.96135115 37.02191038 -189.90185547 67.86572266 C-198.0486263 80.91966629 -198.0486263 80.91966629 -204.21435547 94.92822266 C-205.38998047 94.66009766 -206.56560547 94.39197266 -207.77685547 94.11572266 C-208.60443359 93.93654297 -209.43201172 93.75736328 -210.28466797 93.57275391 C-212.36808358 93.11440247 -214.44580387 92.62982204 -216.51904297 92.12744141 C-237.9600668 87.26286503 -258.80192429 89.643622 -277.83935547 101.17822266 C-292.2602537 110.79908128 -302.75720425 123.6281905 -306.83276367 140.72900391 C-307.51913286 144.68473881 -307.46189125 148.61228429 -307.40185547 152.61572266 C-307.40121094 153.44394531 -307.40056641 154.27216797 -307.39990234 155.12548828 C-307.37066334 159.18321275 -307.22186491 162.97072558 -306.21435547 166.92822266 C-306.7824292 167.02321045 -307.35050293 167.11819824 -307.93579102 167.21606445 C-334.03775472 171.66181487 -355.65688933 180.6644839 -371.90185547 202.56103516 C-374.23215391 205.84881426 -376.03162102 209.15930028 -377.45654297 212.93603516 C-378.23376996 214.97926076 -379.2095691 216.77291883 -380.27685547 218.67822266 C-384.64301529 227.32459428 -385.65944638 237.3799594 -386.21435547 246.92822266 C-389.21435547 246.92822266 -389.21435547 246.92822266 -390.90185547 245.49072266 C-395.37253131 236.76226029 -391.26365373 221.67138869 -388.52685547 212.80322266 C-380.63064142 191.17572461 -365.47540345 175.34091853 -345.21435547 164.92822266 C-334.77767704 160.20369048 -324.60991622 158.5382605 -313.21435547 158.92822266 C-313.37291016 158.28755859 -313.53146484 157.64689453 -313.69482422 156.98681641 C-316.73040359 139.11569875 -312.83130984 122.41812852 -302.65185547 107.55322266 C-294.14483694 96.25215584 -283.77759534 89.01160607 -271.21435547 82.92822266 C-270.10060547 82.37650391 -268.98685547 81.82478516 -267.83935547 81.25634766 C-250.7719529 74.22394567 -229.10705733 76.04362037 -212.33935547 82.99072266 C-211.67677734 83.25949219 -211.01419922 83.52826172 -210.33154297 83.80517578 C-207.92507017 84.78586236 -205.53951708 85.76564185 -203.21435547 86.92822266 C-203.10091797 86.06970703 -202.98748047 85.21119141 -202.87060547 84.32666016 C-197.473941 56.37964774 -172.42964079 28.07063869 -149.71435547 12.67822266 C-147.23855755 11.05383716 -144.73463191 9.4823811 -142.21435547 7.92822266 C-141.27978516 7.32751953 -140.34521484 6.72681641 -139.38232422 6.10791016 C-99.49571032 -18.89188879 -41.87560878 -21.98842633 0 0 Z " fill="#9CF068" transform="translate(581.21435546875,194.07177734375)"/>
<path d="M0 0 C4.25643647 1.56868668 6.59356093 4.78631894 9.375 8.1875 C24.2474636 25.90738881 38.1785767 38.61173214 59 49 C59 49.99 59 50.98 59 52 C57.96101563 52.35191406 56.92203125 52.70382812 55.8515625 53.06640625 C42.98469493 57.55876438 32.73700027 62.50950315 26 75 C23.75503359 79.90515781 21.84435171 84.9330997 20 90 C18.68 90 17.36 90 16 90 C15.69707031 89.23816406 15.39414062 88.47632813 15.08203125 87.69140625 C9.89723709 74.63512432 9.89723709 74.63512432 1 64 C0.278125 63.35933594 -0.44375 62.71867188 -1.1875 62.05859375 C-4.42932938 59.68575475 -7.76991116 58.27101345 -11.5 56.875 C-12.47646484 56.49794922 -12.47646484 56.49794922 -13.47265625 56.11328125 C-15.31293072 55.40319554 -17.15638777 54.70137422 -19 54 C-20.66817614 53.33711948 -22.33554996 52.67218175 -24 52 C-24 51.01 -24 50.02 -24 49 C-23.45585449 48.74831055 -22.91170898 48.49662109 -22.35107422 48.23730469 C-19.85663819 47.07998821 -17.36582631 45.91506392 -14.875 44.75 C-14.0190625 44.35425781 -13.163125 43.95851563 -12.28125 43.55078125 C-2.41227719 39.22388128 -2.41227719 39.22388128 4 31 C5.4370928 22.29361276 3.34674785 14.99589392 -0.00390625 6.99609375 C-0.99557206 4.01331854 -1.16496459 2.85311687 0 0 Z " fill="#8ADB6E" transform="translate(360,712)"/>
<path d="M0 0 C5.0711809 4.20989688 9.90699957 8.65902778 14.66796875 13.21484375 C15.43753906 13.80265625 16.20710937 14.39046875 17 14.99609375 C19.59244127 18.44458705 19.09841006 21.77999339 18.91796875 25.96484375 C18.89992188 26.75761719 18.881875 27.55039062 18.86328125 28.3671875 C18.81629957 30.31692723 18.74455919 32.26604253 18.66796875 34.21484375 C16.07767527 31.6386535 13.50990616 29.05058712 10.9765625 26.41796875 C-10.38252623 4.32338444 -39.03653824 -10.36630266 -70.1953125 -10.953125 C-72.34502929 -10.9649728 -74.49478219 -10.9713682 -76.64453125 -10.97265625 C-78.24071289 -10.99102539 -78.24071289 -10.99102539 -79.86914062 -11.00976562 C-86.10467554 -11.02117905 -91.90718275 -10.5180825 -98.01171875 -9.22827148 C-100.81291648 -8.69332053 -103.48821656 -8.63143654 -106.33203125 -8.78515625 C-106.33203125 -11.75515625 -106.33203125 -14.72515625 -106.33203125 -17.78515625 C-73.47310123 -32.26322886 -27.51471613 -21.02107662 0 0 Z " fill="#81DC64" transform="translate(768.33203125,337.78515625)"/>
<path d="M0 0 C1.65 0 3.3 0 5 0 C5.43699219 1.2684375 5.43699219 1.2684375 5.8828125 2.5625 C9.28952577 11.98988265 12.68114648 19.76471442 21.6328125 24.90234375 C26.26328348 27.04947633 31.11607629 28.54296276 36 30 C35.91015625 32.3515625 35.91015625 32.3515625 35 35 C32.12109375 36.3359375 32.12109375 36.3359375 28.4375 37.375 C19.78762146 40.11513252 14.45951633 43.77073372 10.1875 51.875 C8.10317693 56.46614406 6.4353073 61.16896567 5 66 C3.1875 65.953125 3.1875 65.953125 1 65 C-0.19045802 62.55956106 -1.12580485 60.3005364 -2 57.75 C-4.11679547 51.71364368 -5.99091281 46.85074103 -11.69921875 43.33984375 C-12.68535156 42.87707031 -13.67148437 42.41429687 -14.6875 41.9375 C-15.73808594 41.43863281 -16.78867187 40.93976563 -17.87109375 40.42578125 C-18.90363281 39.95527344 -19.93617188 39.48476563 -21 39 C-21.91910156 38.58105469 -22.83820312 38.16210938 -23.78515625 37.73046875 C-25.85032323 36.80425281 -27.92022812 35.89283136 -30 35 C-29.71386719 33.11132812 -29.71386719 33.11132812 -29 31 C-26.4064229 29.64991877 -23.96226409 28.54574971 -21.25 27.5 C-12.84774584 24.19047903 -8.08173613 21.11293905 -4.13671875 12.75 C-2.41776507 8.59143164 -1.13830786 4.34963167 0 0 Z " fill="#3BB13A" transform="translate(871,231)"/>
<path d="M0 0 C1.9140625 0.6796875 1.9140625 0.6796875 4 2 C4.8359375 4.3203125 4.8359375 4.3203125 5.375 7.125 C7.13614781 14.1788119 9.53751631 18.86741403 15.84765625 22.75390625 C20.78200731 25.29139781 25.71307029 27.31636465 31 29 C30.9140625 30.8203125 30.9140625 30.8203125 30 33 C27.0859375 34.4921875 27.0859375 34.4921875 23.375 35.875 C14.94132545 39.25932178 10.12029582 42.14845945 6.1875 50.5 C4.62046137 54.2784188 3.16645899 58.07645614 2 62 C0.68 62 -0.64 62 -2 62 C-2.48919922 60.69675781 -2.48919922 60.69675781 -2.98828125 59.3671875 C-3.64376953 57.63855469 -3.64376953 57.63855469 -4.3125 55.875 C-4.74175781 54.73804688 -5.17101562 53.60109375 -5.61328125 52.4296875 C-8.27638649 45.16093962 -8.27638649 45.16093962 -14 40.4375 C-14.78246094 40.04046875 -15.56492188 39.6434375 -16.37109375 39.234375 C-20.8946749 37.11037553 -25.42434471 35.00986728 -30 33 C-29.8125 30.62109375 -29.8125 30.62109375 -29 28 C-26.8125 26.84765625 -26.8125 26.84765625 -24 26.0625 C-16.13971375 23.47983452 -10.00852154 20.67928778 -6.125 13.0625 C-5.39065067 11.38615773 -4.6806188 9.69886739 -4 8 C-3.41799973 6.64525987 -2.83485085 5.29101196 -2.25 3.9375 C-1.8375 2.968125 -1.425 1.99875 -1 1 C-0.67 0.67 -0.34 0.34 0 0 Z " fill="#A9E68A" transform="translate(171,177)"/>
<path d="M0 0 C4.68699628 2.12724313 7.42998995 4.54987205 9.63671875 9.31640625 C10.75629382 14.09014993 11.1004428 17.95099654 9.51171875 22.62890625 C6.53092333 26.90137969 3.49594281 30.30072812 -1.36328125 32.31640625 C-6.83399125 33.00403708 -12.30445152 32.51174745 -17.36328125 30.31640625 C-20.63968155 27.2470922 -24.17789835 23.75225139 -24.53125 19.109375 C-24.60089481 9.8187579 -24.60089481 9.8187579 -22.36328125 6.31640625 C-15.64487475 -0.28867773 -9.50062928 -2.74811591 0 0 Z " fill="#C7ECC9" transform="translate(119.36328125,292.68359375)"/>
<path d="M0 0 C0.495 0.99 0.495 0.99 1 2 C-0.39798828 2.03867187 -0.39798828 2.03867187 -1.82421875 2.078125 C-15.99535986 2.70859033 -28.91831411 5.49261135 -39.1875 16 C-42.73778855 20.37868921 -44.58009717 25.69049741 -46.60546875 30.890625 C-47.84581334 33.65621125 -48.56896669 35.25385171 -51 37 C-54.89504791 37.49573337 -57.09493717 37.58016848 -60.4375 35.4375 C-62.71681652 31.88176622 -62.66711751 30.2028403 -62 26 C-56.83632154 13.12003221 -47.14225024 4.70571892 -34.77734375 -1.03125 C-24.33845928 -4.89882984 -10.05298904 -4.75232209 0 0 Z " fill="#92EC5A" transform="translate(455,648)"/>
<path d="M0 0 C0.99 0.495 0.99 0.495 2 1 C1.12786865 1.86689453 0.2557373 2.73378906 -0.64282227 3.62695312 C-3.90877402 6.87466792 -7.17130299 10.12580327 -10.43286133 13.37792969 C-11.83917075 14.77924133 -13.24638022 16.17965036 -14.65454102 17.57910156 C-16.69009656 19.60239038 -18.72228531 21.62901128 -20.75390625 23.65625 C-21.37399063 24.2711731 -21.99407501 24.88609619 -22.63294983 25.51965332 C-25.70545836 28.59177513 -28.66067256 31.71564806 -31.50170898 35.00390625 C-34.90685701 38.94335081 -38.51336149 42.62545606 -42.21875 46.28125 C-42.88032104 46.93903442 -43.54189209 47.59681885 -44.22351074 48.27453613 C-47.01578144 51.05066558 -49.81405416 53.82071537 -52.61181641 56.59130859 C-54.67040898 58.6316708 -56.72587903 60.67514331 -58.78125 62.71875 C-59.71124817 63.63630066 -59.71124817 63.63630066 -60.66003418 64.5723877 C-64.42032673 68.31189254 -67.9563753 72.18495569 -71.42272949 76.19787598 C-73.32273534 78.36874404 -75.31768264 80.41565363 -77.375 82.4375 C-78.13296875 83.18773437 -78.8909375 83.93796875 -79.671875 84.7109375 C-81.22395833 86.23697917 -82.77604167 87.76302083 -84.328125 89.2890625 C-87.841314 92.76640264 -91.27725264 96.25002899 -94.5 100 C-99.13802012 105.39677457 -104.25752903 110.30354364 -109.328125 115.2890625 C-112.8101573 118.73556386 -116.21846875 122.18403553 -119.40625 125.90625 C-124.66279917 132.02274154 -130.52271765 137.56482914 -136.26171875 143.22265625 C-141.95373451 148.86171132 -141.95373451 148.86171132 -147.3125 154.8125 C-153.21379367 161.70314868 -159.87439358 167.92649213 -166.32080078 174.30029297 C-175.98684452 183.84370138 -175.98684452 183.84370138 -185 194 C-186.9375 193.6875 -186.9375 193.6875 -189 193 C-189.33 192.01 -189.66 191.02 -190 190 C-185.30434783 187.13043478 -185.30434783 187.13043478 -182.8125 186.0625 C-180.53342778 184.72649215 -180.12917832 183.3336352 -179 181 C-178.01 180.67 -177.02 180.34 -176 180 C-175.72889404 179.44344727 -175.45778809 178.88689453 -175.1784668 178.31347656 C-173.46599234 174.95167669 -170.815263 172.5907213 -168.14453125 169.984375 C-167.27473885 169.12238495 -167.27473885 169.12238495 -166.38737488 168.24298096 C-164.5337814 166.40715981 -162.6736614 164.57814585 -160.8125 162.75 C-158.97001075 160.93534292 -157.12908013 159.11917447 -155.29118347 157.29986572 C-154.14976186 156.17046715 -153.00568243 155.04374523 -151.85835266 153.92034912 C-149.07100728 151.16712054 -146.4204997 148.36051959 -143.8762207 145.38061523 C-138.71368863 139.41425451 -133.04917547 133.92597093 -127.4609375 128.36328125 C-126.2495866 127.15380013 -125.03845978 125.94409456 -123.82754517 124.73417664 C-120.65887283 121.56929622 -117.48721097 118.40742879 -114.31488037 115.24621582 C-111.09091786 112.03249841 -107.86979301 108.8159396 -104.6484375 105.59960938 C-99.44576982 100.40569422 -94.2414277 95.21346437 -89.03471375 90.02360535 C-86.02025044 87.01862201 -83.00906976 84.01038384 -80 81 C-77.66666667 78.66666667 -75.33333333 76.33333333 -73 74 C-72.20335937 73.20207031 -71.40671875 72.40414062 -70.5859375 71.58203125 C-68.91930188 69.91791321 -67.24778162 68.25866581 -65.5703125 66.60546875 C-61.02027739 62.10631262 -56.63782829 57.54579335 -52.46484375 52.6953125 C-50.72994805 50.68745988 -48.98475706 48.7642285 -47 47 C-46.34 47 -45.68 47 -45 47 C-44.75609528 46.4307782 -44.51219055 45.8615564 -44.26089478 45.27508545 C-42.76902739 42.58324641 -41.00891266 40.76909446 -38.82568359 38.59863281 C-37.96494232 37.7380426 -37.10420105 36.87745239 -36.21737671 35.99078369 C-35.28712677 35.07085632 -34.35687683 34.15092896 -33.3984375 33.203125 C-32.43678914 32.24520903 -31.47558306 31.28684886 -30.51480103 30.32806396 C-27.99076718 27.81164875 -25.46078409 25.30129893 -22.92950439 22.79217529 C-20.3452081 20.22837559 -17.76659801 17.65887082 -15.1875 15.08984375 C-10.13054303 10.05430543 -5.06727744 5.0251544 0 0 Z " fill="#79D552" transform="translate(725,533)"/>
<path d="M0 0 C4.34468141 2.1723407 7.60032162 4.75441518 10 9 C10.83040481 14.05869055 10.58646548 17.84801423 8.25 22.4375 C4.27166845 26.9683776 1.35525497 28.80372875 -4.75 29.3125 C-9.29471561 29.22060318 -12.61027406 28.0722073 -16 25 C-18.49191648 21.54513054 -19.78036128 18.17140652 -20.5625 14 C-19.56555138 8.68294069 -16.7745151 4.62241381 -12.8125 1 C-8.50941726 -0.52998498 -4.50944366 -0.65144451 0 0 Z " fill="#9BD79B" transform="translate(306,707)"/>
<path d="M0 0 C5.11280275 1.84060899 8.10397971 4.40043837 11 9 C11.85917551 12.86628981 11.93718434 16.32162044 9.97265625 19.83984375 C7.36201327 23.08529353 4.72340493 25.74297729 0.51171875 26.37109375 C-8.05602358 26.57254827 -8.05602358 26.57254827 -11.5625 23.8125 C-15.10110247 19.72949715 -16.22505427 16.99154719 -16.125 11.625 C-15.42833518 6.67370357 -13.06877909 4.24110498 -9.1875 1.25390625 C-5.8957977 -0.63294454 -3.69897234 -0.68499488 0 0 Z " fill="#CBEED1" transform="translate(917,330)"/>
<path d="M0 0 C0.57580811 0.238396 1.15161621 0.47679199 1.74487305 0.72241211 C-4.00627233 7.68233681 -10.39695965 13.92060216 -16.82348633 20.25170898 C-20.51616917 23.9108981 -24.17208261 27.54504097 -27.5402832 31.50756836 C-33.45372898 38.40528877 -40.12002833 44.63951894 -46.57592773 51.02270508 C-56.24197148 60.56611349 -56.24197148 60.56611349 -65.25512695 70.72241211 C-67.19262695 70.40991211 -67.19262695 70.40991211 -69.25512695 69.72241211 C-69.58512695 68.73241211 -69.91512695 67.74241211 -70.25512695 66.72241211 C-65.55947478 63.85284689 -65.55947478 63.85284689 -63.06762695 62.78491211 C-60.78855474 61.44890426 -60.38430527 60.0560473 -59.25512695 57.72241211 C-57.77012695 57.22741211 -57.77012695 57.22741211 -56.25512695 56.72241211 C-55.984021 56.16585937 -55.71291504 55.60930664 -55.43359375 55.03588867 C-53.72111929 51.6740888 -51.07038995 49.31313341 -48.3996582 46.70678711 C-47.5298658 45.84479706 -47.5298658 45.84479706 -46.64250183 44.96539307 C-44.78890835 43.12957192 -42.92878835 41.30055796 -41.06762695 39.47241211 C-31.18914138 29.82796639 -31.18914138 29.82796639 -21.90380859 19.62231445 C-18.45481765 15.64777758 -14.75379108 11.91293165 -11.06762695 8.15991211 C-10.27420898 7.32911133 -9.48079102 6.49831055 -8.66333008 5.64233398 C-7.89569336 4.8630957 -7.12805664 4.08385742 -6.3371582 3.28100586 C-5.30425659 2.21837524 -5.30425659 2.21837524 -4.25048828 1.13427734 C-2.25512695 -0.27758789 -2.25512695 -0.27758789 0 0 Z " fill="#71D34B" transform="translate(605.255126953125,656.277587890625)"/>
<path d="M0 0 C4.07376031 1.61010527 6.76507069 4.53822271 9.75 7.625 C10.25660156 8.140625 10.76320313 8.65625 11.28515625 9.1875 C12.52803902 10.45383339 13.76465276 11.7263144 15 13 C12.3950866 15.89694405 10.74896749 17.41080342 6.875 18 C3.61175849 18.59090992 3.61175849 18.59090992 1.5 21.125 C1.335 21.74375 1.17 22.3625 1 23 C-0.76329032 18.44889889 -1.24491558 14.68238499 -1.1875 9.8125 C-1.17783203 7.99685547 -1.17783203 7.99685547 -1.16796875 6.14453125 C-1 3 -1 3 0 0 Z " fill="#23943D" transform="translate(382,671)"/>
<path d="M0 0 C0.66 0 1.32 0 2 0 C7.75665015 11.56229306 13.2510297 24.94645564 13 38 C11.27055497 34.84806771 10.35666056 31.78044395 9.4375 28.3125 C7.46070044 21.5806961 4.39122729 15.76380206 0.82202148 9.73754883 C0.42958252 9.04943115 0.03714355 8.36131348 -0.3671875 7.65234375 C-0.72925293 7.04382568 -1.09131836 6.43530762 -1.46435547 5.80834961 C-2 4 -2 4 -1.10205078 1.77172852 C-0.55653564 0.8947229 -0.55653564 0.8947229 0 0 Z " fill="#80DC5E" transform="translate(646,259)"/>
<path d="M0 0 C2.87950786 2.6008458 4.21737013 4.21728897 5 8 C5.66 8.33 6.32 8.66 7 9 C5.02 9.33 3.04 9.66 1 10 C-0.60725635 6.78548731 -0.05748185 3.56387464 0 0 Z " fill="#40B43A" transform="translate(189,437)"/>
<path d="M0 0 C0.66 0.33 1.32 0.66 2 1 C0.56354149 2.60509934 -0.87420706 4.20904424 -2.3125 5.8125 C-3.11300781 6.70582031 -3.91351562 7.59914063 -4.73828125 8.51953125 C-6.45224581 10.39926786 -8.17877604 12.22592747 -10 14 C-10.66 13.67 -11.32 13.34 -12 13 C-8.04 8.71 -4.08 4.42 0 0 Z " fill="#D2EEE4" transform="translate(708,679)"/>
<path d="M0 0 C4.46840411 0.49648935 5.68987756 0.68987756 9 4 C5.37 4 1.74 4 -2 4 C-1.34 3.67 -0.68 3.34 0 3 C0 2.01 0 1.02 0 0 Z " fill="#81E151" transform="translate(447,646)"/>
<path d="M0 0 C0.66 0 1.32 0 2 0 C4.125 5.625 4.125 5.625 3 9 C2.34 9 1.68 9 1 9 C-0.75 6.75 -0.75 6.75 -2 4 C-1.1875 1.6875 -1.1875 1.6875 0 0 Z " fill="#84DE5F" transform="translate(646,259)"/>
<path d="M0 0 C2.76248869 5.15664556 3.1129027 9.12905966 3 15 C1.46417013 12.16163087 0.51269491 9.52324478 -0.1875 6.375 C-0.36667969 5.59898437 -0.54585937 4.82296875 -0.73046875 4.0234375 C-1 2 -1 2 0 0 Z " fill="#68CC4F" transform="translate(656,282)"/>
</svg>
